<?xml version="1.0" encoding="UTF-8" standalone="no"?>
<!DOCTYPE svg PUBLIC "-//W3C//DTD SVG 1.1//EN" "http://www.w3.org/Graphics/SVG/1.1/DTD/svg11.dtd">
<svg xmlns:xl="http://www.w3.org/1999/xlink" xmlns:dc="http://purl.org/dc/elements/1.1/" xmlns="http://www.w3.org/2000/svg" version="1.1" viewBox="0 0 1020 240" width="1020" height="240">
  <defs/>
  <metadata> Produced by OmniGraffle 7.14.1 
    <dc:date>2020-03-28 21:12:05 +0000</dc:date>
  </metadata>
  <g id="scoreboard-social-media_1" stroke="none" stroke-dasharray="none" fill="none" fill-opacity="1" stroke-opacity="1">
    <title>scoreboard-social-media 1</title>
    <g id="scoreboard-social-media_1: Layer 1">
      <title>Layer 1</title>
      <g id="Graphic_55">
        <rect x="60.25512" y="28.699183" width="167.46182" height="28.87603" fill="#009fe3"/>
      </g>
      <g id="Graphic_54">
        <rect x="60.25512" y="63.10955" width="167.46182" height="28.87603" fill="#009fe3" fill-opacity=".8"/>
      </g>
      <g id="Graphic_53">
        <rect x="60.25512" y="97.51991" width="167.46182" height="28.87603" fill="#009fe3" fill-opacity=".6"/>
      </g>
      <g id="Graphic_52">
        <rect x="60.25512" y="131.93027" width="167.46182" height="28.87603" fill="#009fe3" fill-opacity=".4"/>
      </g>
      <g id="Graphic_51">
        <rect x="60.25512" y="166.34064" width="167.46182" height="28.87603" fill="#009fe3" fill-opacity=".2"/>
      </g>
      <g id="Graphic_50">
        <rect x="25" y="28.699183" width="28.876" height="28.876" fill="#009fe3"/>
      </g>
      <g id="Graphic_49">
        <rect x="25" y="63.10955" width="28.876" height="28.876" fill="#009fe3" fill-opacity=".8"/>
      </g>
      <g id="Graphic_48">
        <rect x="25" y="97.51991" width="28.876" height="28.876" fill="#009fe3" fill-opacity=".6"/>
      </g>
      <g id="Graphic_47">
        <rect x="25" y="131.93027" width="28.876" height="28.876" fill="#009fe3" fill-opacity=".4"/>
      </g>
      <g id="Graphic_46">
        <rect x="25" y="166.34064" width="28.876" height="28.876" fill="#009fe3" fill-opacity=".2"/>
      </g>
      <g id="Graphic_86">
        <path d="M 323.0772 28.699183 L 339.23537 28.699183 L 339.23537 102.60297 L 318.70654 102.60297 L 291.15818 50.552453 L 291.15818 102.60297 L 275 102.60297 L 275 28.699183 L 295.52883 28.699183 L 323.0772 80.7497 Z" fill="black"/>
      </g>
      <g id="Graphic_87">
        <path d="M 375.633 89.22612 C 379.91536 89.22612 383.14917 87.75821 385.3345 84.82235 C 387.51985 81.8865 388.6125 77.52692 388.6125 71.7435 C 388.6125 65.87179 387.51985 61.512214 385.3345 58.66465 C 383.14917 55.81709 379.91536 54.39333 375.633 54.39333 C 371.3506 54.39333 368.1168 55.81709 365.93146 58.66465 C 363.7461 61.512214 362.65347 65.87179 362.65347 71.7435 C 362.65347 77.52692 363.7461 81.8865 365.93146 84.82235 C 368.1168 87.75821 371.3506 89.22612 375.633 89.22612 Z M 375.633 102.60297 C 372.14527 102.60297 368.64658 102.11735 365.1368 101.14609 C 361.627 100.17482 358.4484 98.50825 355.6008 96.14632 C 352.75326 93.78439 350.4355 90.62784 348.6475 86.67657 C 346.8595 82.7253 345.9655 77.74766 345.9655 71.7435 C 345.9655 65.73934 346.8595 60.7617 348.6475 56.810435 C 350.4355 52.85917 352.75326 49.71365 355.6008 47.373796 C 358.4484 45.03394 361.627 43.38944 365.1368 42.440254 C 368.64658 41.491067 372.14527 41.01648 375.633 41.01648 C 379.1207 41.01648 382.6194 41.491067 386.12918 42.440254 C 389.63896 43.38944 392.8176 45.03394 395.66515 47.373796 C 398.5127 49.71365 400.83046 52.85917 402.61846 56.810435 C 404.40647 60.7617 405.30045 65.73934 405.30045 71.7435 C 405.30045 77.74766 404.40647 82.7253 402.61846 86.67657 C 400.83046 90.62784 398.5127 93.78439 395.66515 96.14632 C 392.8176 98.50825 389.63896 100.17482 386.12918 101.14609 C 382.6194 102.11735 379.1207 102.60297 375.633 102.60297 Z" fill="black"/>
      </g>
      <g id="Graphic_88">
        <path d="M 413.6311 42.34092 C 416.1034 42.34092 417.82515 41.833224 418.7964 40.817815 C 419.76767 39.802405 420.2533 38.102723 420.2533 35.71872 L 420.2533 24.99075 L 433.2328 24.99075 L 433.2328 42.34092 L 450.583 42.34092 L 450.583 54.525775 L 433.2328 54.525775 L 433.2328 80.61726 C 433.2328 82.07415 433.3542 83.35443 433.59703 84.45813 C 433.83985 85.56184 434.2813 86.48894 434.9215 87.23946 C 435.5616 87.98998 436.43354 88.55286 437.53724 88.92812 C 438.64095 89.30338 440.0316 89.49101 441.70923 89.49101 C 443.1661 89.49101 444.63403 89.35857 446.113 89.09368 C 447.59196 88.82879 448.7729 88.51975 449.6559 88.16657 L 449.6559 100.61631 C 449.17025 100.83705 448.50803 101.06883 447.6692 101.31164 C 446.8304 101.55446 445.8812 101.77519 444.82167 101.97386 C 443.7621 102.17253 442.60324 102.32704 441.345 102.43741 C 440.0868 102.54779 438.79547 102.60297 437.471 102.60297 C 433.54183 102.60297 430.25283 102.10631 427.60394 101.11297 C 424.95505 100.11964 422.83596 98.72899 421.2466 96.94099 C 419.6573 95.15298 418.5205 93.02286 417.8362 90.55056 C 417.1519 88.07826 416.80975 85.38526 416.80975 82.47147 L 416.80975 54.525775 L 408.33333 54.525775 L 408.33333 42.34092 Z" fill="black"/>
      </g>
      <g id="Graphic_89">
        <path d="M 501.801 42.34092 C 504.2733 42.34092 505.99505 41.833224 506.9663 40.817815 C 507.9376 39.802405 508.4232 38.102723 508.4232 35.71872 L 508.4232 24.99075 L 521.4027 24.99075 L 521.4027 42.34092 L 538.7529 42.34092 L 538.7529 54.525775 L 521.4027 54.525775 L 521.4027 80.61726 C 521.4027 82.07415 521.5241 83.35443 521.76694 84.45813 C 522.00975 85.56184 522.4512 86.48894 523.0914 87.23946 C 523.7315 87.98998 524.60344 88.55286 525.70715 88.92812 C 526.81085 89.30338 528.2015 89.49101 529.87914 89.49101 C 531.336 89.49101 532.80393 89.35857 534.2829 89.09368 C 535.76187 88.82879 536.9428 88.51975 537.8258 88.16657 L 537.8258 100.61631 C 537.34015 100.83705 536.67793 101.06883 535.8391 101.31164 C 535.0003 101.55446 534.0511 101.77519 532.9916 101.97386 C 531.932 102.17253 530.77314 102.32704 529.5149 102.43741 C 528.2567 102.54779 526.9654 102.60297 525.6409 102.60297 C 521.71173 102.60297 518.42274 102.10631 515.77384 101.11297 C 513.12495 100.11964 511.00586 98.72899 509.4165 96.94099 C 507.8272 95.15298 506.6904 93.02286 506.0061 90.55056 C 505.3218 88.07826 504.97965 85.38526 504.97965 82.47147 L 504.97965 54.525775 L 496.50323 54.525775 L 496.50323 42.34092 Z" fill="black"/>
      </g>
      <g id="Graphic_90">
        <path d="M 564.5032 50.42001 C 565.2096 49.36045 566.09255 48.345057 567.1521 47.373796 C 568.2117 46.402534 569.4699 45.541657 570.92677 44.791136 C 572.38366 44.040616 574.0502 43.444624 575.9265 43.00314 C 577.8028 42.56166 579.9109 42.34092 582.2507 42.34092 C 584.5906 42.34092 586.94145 42.66099 589.3034 43.30114 C 591.6653 43.94129 593.7954 45.133275 595.6938 46.87713 C 597.5922 48.620986 599.13735 51.038066 600.32935 54.12844 C 601.52135 57.21882 602.11734 61.23625 602.11734 66.18085 L 602.11734 102.60297 L 585.6943 102.60297 L 585.6943 69.09462 C 585.6943 67.019655 585.5508 65.18753 585.26384 63.59819 C 584.9769 62.00886 584.45814 60.68443 583.7076 59.62487 C 582.9571 58.565314 581.9417 57.75962 580.6614 57.20777 C 579.3811 56.655914 577.74765 56.37999 575.761 56.37999 C 572.97963 56.37999 570.6619 56.84354 568.80766 57.770655 C 566.95343 58.69777 565.51864 59.69109 564.5032 60.750646 L 564.5032 102.60297 L 548.08016 102.60297 L 548.08016 14.925 L 564.5032 14.925 Z" fill="black"/>
      </g>
      <g id="Graphic_91">
        <path d="M 648.99365 65.253744 C 648.508 61.10381 647.2388 58.01348 645.1859 55.98266 C 643.133 53.95184 640.34065 52.936446 636.8088 52.936446 C 633.2769 52.936446 630.4846 53.95184 628.4317 55.98266 C 626.3788 58.01348 625.1096 61.10381 624.62394 65.253744 Z M 665.0194 81.41192 C 664.62205 84.19326 663.90465 86.64345 662.8672 88.76257 C 661.8297 90.88168 660.5825 92.73588 659.1256 94.32522 C 657.6687 95.91455 656.0353 97.22794 654.2252 98.26543 C 652.4151 99.30291 650.53884 100.15275 648.5963 100.81498 C 646.6538 101.4772 644.7003 101.94075 642.7357 102.20564 C 640.7711 102.47053 638.88376 102.60297 637.0737 102.60297 C 633.5418 102.60297 630.0542 102.08424 626.6106 101.04675 C 623.16704 100.00927 620.08775 98.29855 617.3726 95.91454 C 614.6575 93.53054 612.4722 90.36295 610.81665 86.41168 C 609.1611 82.46042 608.3333 77.57107 608.3333 71.7435 C 608.3333 65.82764 609.18316 60.89415 610.8829 56.94288 C 612.5826 52.99161 614.78996 49.83506 617.5051 47.47313 C 620.2202 45.1112 623.2664 43.444627 626.6437 42.473365 C 630.02105 41.502104 633.4094 41.01648 636.8088 41.01648 C 640.1199 41.01648 643.4641 41.491067 646.8414 42.440254 C 650.2188 43.38944 653.276 45.0229 656.0132 47.340685 C 658.7504 49.65847 660.9798 52.80398 662.7016 56.777324 C 664.4234 60.750666 665.2843 65.73934 665.2843 71.7435 L 665.2843 74.1275 L 624.35905 74.1275 C 624.4915 79.60188 625.67245 83.66346 627.9019 86.31235 C 630.1314 88.96124 633.3211 90.28567 637.471 90.28567 C 640.7821 90.28567 643.431 89.50205 645.41766 87.93479 C 647.4043 86.36753 648.6405 84.19326 649.1261 81.41192 Z" fill="black"/>
      </g>
      <g id="Graphic_92">
        <path d="M 292.0853 171.20649 C 292.26188 173.19316 292.8027 174.89284 293.70773 176.30558 C 294.61276 177.71833 295.77164 178.88824 297.18438 179.81535 C 298.59713 180.74247 300.21955 181.41572 302.0517 181.83512 C 303.88385 182.25453 305.8153 182.46423 307.84613 182.46423 C 311.86362 182.46423 314.9429 181.70269 317.0841 180.17957 C 319.2253 178.65646 320.29587 176.6367 320.29587 174.12026 C 320.29587 172.0453 319.54536 170.30146 318.04432 168.88872 C 316.5433 167.47597 314.071 166.30606 310.62745 165.37895 L 295.79372 161.40563 C 289.61297 159.728 284.88917 157.1895 281.6222 153.7901 C 278.35523 150.39068 276.72177 145.95385 276.72177 140.47947 C 276.72177 136.59442 277.51643 133.27232 279.10577 130.51305 C 280.6951 127.75378 282.8142 125.50226 285.46308 123.7584 C 288.11198 122.01455 291.14712 120.7453 294.5686 119.95064 C 297.9901 119.15597 301.53294 118.75864 305.19725 118.75864 C 309.21474 118.75864 312.9673 119.23323 316.455 120.18241 C 319.9427 121.1316 322.9889 122.57743 325.59363 124.51996 C 328.19838 126.46248 330.2954 128.91267 331.88473 131.8706 C 333.47406 134.82853 334.42324 138.3162 334.73227 142.33368 L 317.77943 142.33368 C 317.647 140.4353 317.19448 138.80185 316.4219 137.43325 C 315.6493 136.06466 314.64493 134.94993 313.40878 134.08904 C 312.17263 133.22815 310.7599 132.59905 309.17057 132.20171 C 307.58123 131.80438 305.90362 131.60571 304.1377 131.60571 C 300.69413 131.60571 298.06735 132.29 296.25727 133.6586 C 294.4472 135.02719 293.54217 136.90346 293.54217 139.28747 C 293.54217 141.23 294.2375 142.87449 295.62816 144.22101 C 297.01883 145.56753 299.50214 146.74848 303.07814 147.76389 L 317.91188 151.73721 C 320.8698 152.53188 323.5297 153.5252 325.89163 154.7172 C 328.25356 155.9092 330.26228 157.36608 331.91784 159.08786 C 333.5734 160.80964 334.85368 162.79628 335.7587 165.04784 C 336.66375 167.2994 337.11627 169.88203 337.11627 172.79582 C 337.11627 176.94575 336.26643 180.44445 334.5667 183.292 C 332.867 186.13957 330.60445 188.45732 327.77896 190.24532 C 324.95347 192.03333 321.7307 193.32464 318.11054 194.1193 C 314.4904 194.91398 310.7599 195.3113 306.91902 195.3113 C 302.3276 195.3113 298.1336 194.78154 294.33683 193.72198 C 290.5401 192.66242 287.26213 191.10622 284.50286 189.05333 C 281.7436 187.00043 279.54726 184.48402 277.91377 181.50401 C 276.2803 178.524 275.30904 175.09153 275 171.20649 Z" fill="black"/>
      </g>
      <g id="Graphic_93">
        <path d="M 373.63297 181.93445 C 377.91535 181.93445 381.14916 180.46654 383.3345 177.53068 C 385.51984 174.59483 386.6125 170.23525 386.6125 164.45183 C 386.6125 158.58012 385.51984 154.22054 383.3345 151.37298 C 381.14916 148.52542 377.91535 147.10166 373.63297 147.10166 C 369.3506 147.10166 366.1168 148.52542 363.93145 151.37298 C 361.7461 154.22054 360.65346 158.58012 360.65346 164.45183 C 360.65346 170.23525 361.7461 174.59483 363.93145 177.53068 C 366.1168 180.46654 369.3506 181.93445 373.63297 181.93445 Z M 373.63297 195.3113 C 370.14526 195.3113 366.64657 194.82568 363.1368 193.85441 C 359.627 192.88315 356.44837 191.21658 353.6008 188.85465 C 350.75325 186.49272 348.4355 183.33617 346.6475 179.3849 C 344.8595 175.43363 343.9655 170.456 343.9655 164.45183 C 343.9655 158.44767 344.8595 153.47003 346.6475 149.51876 C 348.4355 145.5675 350.75325 142.42198 353.6008 140.08212 C 356.44837 137.74227 359.627 136.09777 363.1368 135.14858 C 366.64657 134.1994 370.14526 133.72481 373.63297 133.72481 C 377.1207 133.72481 380.6194 134.1994 384.12917 135.14858 C 387.63895 136.09777 390.8176 137.74227 393.66514 140.08212 C 396.5127 142.42198 398.83045 145.5675 400.61845 149.51876 C 402.40646 153.47003 403.30044 158.44767 403.30044 164.45183 C 403.30044 170.456 402.40646 175.43363 400.61845 179.3849 C 398.83045 183.33617 396.5127 186.49272 393.66514 188.85465 C 390.8176 191.21658 387.63895 192.88315 384.12917 193.85441 C 380.6194 194.82568 377.1207 195.3113 373.63297 195.3113 Z" fill="black"/>
      </g>
      <g id="Graphic_94">
        <path d="M 427.06885 144.05546 C 427.8635 142.8193 428.83476 141.66043 429.9826 140.5788 C 431.13047 139.49717 432.49905 138.548 434.0884 137.73125 C 435.6777 136.91451 437.47673 136.26333 439.4855 135.7777 C 441.4942 135.29207 443.7568 135.04926 446.27324 135.04926 C 448.7014 135.04926 451.1295 135.36933 453.55766 136.00948 C 455.9858 136.64963 458.1601 137.84161 460.08053 139.58547 C 462.001 141.32932 463.5572 143.7464 464.7492 146.83678 C 465.9412 149.92716 466.5372 153.94459 466.5372 158.88919 L 466.5372 195.3113 L 450.1141 195.3113 L 450.1141 161.80296 C 450.1141 159.728 449.97064 157.89587 449.68367 156.30653 C 449.3967 154.7172 448.878 153.39277 448.12745 152.33321 C 447.37693 151.27365 446.36154 150.46796 445.08124 149.9161 C 443.80094 149.36425 442.1675 149.08833 440.1808 149.08833 C 437.39947 149.08833 435.0817 149.55188 433.2275 150.479 C 431.37327 151.4061 429.9385 152.39943 428.92307 153.45898 L 428.92307 195.3113 L 412.5 195.3113 L 412.5 136.3737 L 427.06885 136.3737 Z" fill="black"/>
      </g>
      <g id="Graphic_95">
        <path d="M 517.03205 189.16093 C 516.414 190.0439 515.6193 190.92685 514.64806 191.8098 C 513.6768 192.69278 512.54 193.49847 511.2376 194.22691 C 509.93525 194.95536 508.46734 195.55135 506.83386 196.0149 C 505.2004 196.47847 503.3903 196.71024 501.40365 196.71024 C 498.1367 196.71024 494.98013 196.14736 491.9339 195.02158 C 488.8877 193.8958 486.2057 192.1299 483.8879 189.72382 C 481.57014 187.31774 479.71594 184.24948 478.3253 180.51895 C 476.9346 176.78843 476.2393 172.29641 476.2393 167.04277 C 476.2393 161.78913 476.9346 157.264 478.3253 153.46725 C 479.71594 149.6705 481.57014 146.54706 483.8879 144.09684 C 486.2057 141.64661 488.8877 139.8476 491.9339 138.69974 C 494.98013 137.55189 498.1367 136.97797 501.40365 136.97797 C 503.69936 136.97797 505.7743 137.23182 507.6285 137.73952 C 509.48275 138.24723 511.1383 138.8984 512.5952 139.69307 C 514.05207 140.48774 515.29924 141.38173 516.3367 142.37506 C 517.3742 143.3684 518.22404 144.35068 518.88627 145.32194 L 518.88627 138.30241 L 533.4551 138.30241 L 533.4551 199.49157 C 533.4551 203.11172 533.0578 206.46694 532.2631 209.55731 C 531.46845 212.6477 530.0447 215.31862 527.9918 217.57018 C 525.9389 219.82174 523.1024 221.58764 519.48227 222.86794 C 515.8621 224.14824 511.2487 224.78838 505.64186 224.78838 C 501.3595 224.78838 497.4745 224.38002 493.9868 223.56327 C 490.4991 222.74653 487.5191 221.4773 485.0468 219.7555 C 482.5745 218.03373 480.6651 215.80427 479.3186 213.06708 C 477.9721 210.3299 477.29883 207.0409 477.29883 203.2 L 493.457 203.2 C 493.457 206.37867 494.39514 208.76264 496.27144 210.35198 C 498.14774 211.94132 501.05045 212.73597 504.97964 212.73597 C 507.9376 212.73597 510.2222 212.30553 511.8336 211.44464 C 513.44503 210.58375 514.637 209.458 515.4096 208.06732 C 516.1822 206.67665 516.64576 205.12045 516.8003 203.39867 C 516.9548 201.67688 517.03205 199.93306 517.03205 198.16713 Z M 517.03205 154.46058 C 515.75175 153.18029 514.19555 152.198 512.3634 151.5137 C 510.53125 150.8294 508.55564 150.48726 506.4365 150.48726 C 501.88926 150.48726 498.50093 151.89999 496.27144 154.72547 C 494.04196 157.55096 492.92723 161.56839 492.92723 166.77788 C 492.92723 171.98737 494.04196 176.02688 496.27144 178.89651 C 498.50093 181.76615 501.88926 183.20095 506.4365 183.20095 C 508.55564 183.20095 510.53125 182.8588 512.3634 182.1745 C 514.19555 181.4902 515.75175 180.50792 517.03205 179.22762 Z" fill="black"/>
      </g>
      <g id="Graphic_96">
        <path d="M 644.4373 167.23316 C 644.08414 171.78043 643.01356 175.79786 641.22556 179.28557 C 639.43755 182.77328 637.0867 185.7091 634.1729 188.0931 C 631.2591 190.4771 627.8598 192.27612 623.9747 193.4902 C 620.0897 194.70427 615.8736 195.3113 611.3263 195.3113 C 605.6753 195.3113 600.6977 194.39524 596.39324 192.56308 C 592.0888 190.73093 588.49076 188.1483 585.59905 184.8151 C 582.70734 181.48191 580.5331 177.46449 579.0762 172.7627 C 577.6193 168.0609 576.89085 162.81838 576.89085 157.03496 C 576.89085 151.2957 577.6193 146.0642 579.0762 141.34034 C 580.5331 136.61648 582.70734 132.58801 585.59905 129.25482 C 588.49076 125.92163 592.0888 123.339 596.39324 121.50685 C 600.6977 119.6747 605.6753 118.75863 611.3263 118.75863 C 615.8736 118.75863 620.0897 119.36566 623.9747 120.57974 C 627.8598 121.79381 631.2591 123.59283 634.1729 125.97683 C 637.0867 128.36084 639.43755 131.29665 641.22556 134.78436 C 643.01356 138.27207 644.08414 142.2895 644.4373 146.83677 L 627.35204 146.83677 C 627.2196 145.0267 626.8002 143.30494 626.0938 141.67145 C 625.38745 140.03797 624.37206 138.60317 623.0476 137.36702 C 621.72316 136.13087 620.1118 135.14859 618.2134 134.42014 C 616.315 133.6917 614.10765 133.32748 611.5912 133.32748 C 608.1035 133.32748 605.2449 134.01177 603.01545 135.38036 C 600.78596 136.74896 599.02006 138.559 597.7177 140.81057 C 596.4153 143.06213 595.5103 145.60061 595.0026 148.4261 C 594.4949 151.25159 594.241 154.12118 594.241 157.03496 C 594.241 159.94875 594.4949 162.81834 595.0026 165.64383 C 595.5103 168.46932 596.4153 171.0078 597.7177 173.25936 C 599.02006 175.51092 600.78596 177.32097 603.01545 178.68957 C 605.2449 180.05816 608.1035 180.74245 611.5912 180.74245 C 614.10765 180.74245 616.315 180.37823 618.2134 179.64979 C 620.1118 178.92134 621.72316 177.93906 623.0476 176.7029 C 624.37206 175.46676 625.38745 174.03196 626.0938 172.39848 C 626.8002 170.765 627.2196 169.04324 627.35204 167.23316 Z" fill="black"/>
      </g>
      <g id="Graphic_97">
        <path d="M 679.66745 181.93445 C 683.9498 181.93445 687.1836 180.46654 689.369 177.53068 C 691.5543 174.59483 692.647 170.23525 692.647 164.45183 C 692.647 158.58012 691.5543 154.22054 689.369 151.37298 C 687.1836 148.52542 683.9498 147.10166 679.66745 147.10166 C 675.3851 147.10166 672.15126 148.52542 669.9659 151.37298 C 667.7806 154.22054 666.6879 158.58012 666.6879 164.45183 C 666.6879 170.23525 667.7806 174.59483 669.9659 177.53068 C 672.15126 180.46654 675.3851 181.93445 679.66745 181.93445 Z M 679.66745 195.3113 C 676.1797 195.3113 672.681 194.82568 669.17125 193.85441 C 665.6615 192.88315 662.48284 191.21658 659.6353 188.85465 C 656.7877 186.49272 654.47 183.33617 652.682 179.3849 C 650.894 175.43363 650 170.456 650 164.45183 C 650 158.44767 650.894 153.47003 652.682 149.51876 C 654.47 145.5675 656.7877 142.42198 659.6353 140.08212 C 662.48284 137.74227 665.6615 136.09777 669.17125 135.14858 C 672.681 134.1994 676.1797 133.72481 679.66745 133.72481 C 683.15516 133.72481 686.65385 134.1994 690.1636 135.14858 C 693.6734 136.09777 696.85205 137.74227 699.6996 140.08212 C 702.5472 142.42198 704.8649 145.5675 706.6529 149.51876 C 708.4409 153.47003 709.3349 158.44767 709.3349 164.45183 C 709.3349 170.456 708.4409 175.43363 706.6529 179.3849 C 704.8649 183.33617 702.5472 186.49272 699.6996 188.85465 C 696.85205 191.21658 693.6734 192.88315 690.1636 193.85441 C 686.65385 194.82568 683.15516 195.3113 679.66745 195.3113 Z" fill="black"/>
      </g>
      <g id="Graphic_98">
        <path d="M 731.2355 144.05545 C 732.03016 142.8193 733.0014 141.66042 734.1493 140.57879 C 735.2971 139.49716 736.6657 138.54799 738.255 137.73124 C 739.8444 136.9145 741.6434 136.26332 743.6521 135.7777 C 745.6609 135.29206 747.9234 135.04925 750.4399 135.04925 C 752.868 135.04925 755.29615 135.36932 757.7243 136.00947 C 760.15245 136.64962 762.3267 137.8416 764.2472 139.58546 C 766.1676 141.32932 767.7238 143.7464 768.9158 146.83677 C 770.1078 149.92715 770.7038 153.94458 770.7038 158.88918 L 770.7038 195.3113 L 754.28075 195.3113 L 754.28075 161.80295 C 754.28075 159.72798 754.1373 157.89586 753.8503 156.30652 C 753.56335 154.71719 753.0446 153.39276 752.2941 152.3332 C 751.5436 151.27364 750.5282 150.46795 749.2479 149.9161 C 747.9676 149.36424 746.3341 149.08832 744.34745 149.08832 C 741.5661 149.08832 739.2484 149.55187 737.3941 150.47898 C 735.5399 151.4061 734.1051 152.39942 733.0897 153.45898 L 733.0897 195.3113 L 716.6666 195.3113 L 716.6666 136.37369 L 731.2355 136.37369 Z" fill="black"/>
      </g>
      <g id="Graphic_99">
        <path d="M 780.2977 135.04925 C 782.77 135.04925 784.4918 134.54155 785.46305 133.52614 C 786.4343 132.51073 786.9199 130.81105 786.9199 128.42705 L 786.9199 117.69908 L 799.8995 117.69908 L 799.8995 135.04925 L 817.2496 135.04925 L 817.2496 147.2341 L 799.8995 147.2341 L 799.8995 173.32558 C 799.8995 174.78248 800.0209 176.06276 800.2637 177.16646 C 800.5065 178.27017 800.948 179.19727 801.5881 179.94779 C 802.2283 180.6983 803.1002 181.2612 804.2039 181.63645 C 805.3076 182.0117 806.6982 182.19934 808.3759 182.19934 C 809.8328 182.19934 811.3007 182.0669 812.7796 181.802 C 814.2586 181.53712 815.4396 181.22808 816.3225 180.8749 L 816.3225 193.32464 C 815.8369 193.54538 815.1747 193.77715 814.3359 194.01997 C 813.497 194.26278 812.5479 194.48352 811.4883 194.6822 C 810.4288 194.88086 809.2699 195.03537 808.0117 195.14574 C 806.7534 195.25611 805.4621 195.3113 804.1377 195.3113 C 800.2085 195.3113 796.9195 194.81464 794.2706 193.8213 C 791.6217 192.82797 789.5026 191.43732 787.9133 189.64932 C 786.3239 187.86131 785.1871 185.7312 784.5028 183.2589 C 783.8185 180.78659 783.4764 178.09359 783.4764 175.1798 L 783.4764 147.2341 L 775 147.2341 L 775 135.04925 Z" fill="black"/>
      </g>
      <g id="Graphic_100">
        <path d="M 866.327 157.96207 C 865.8414 153.81214 864.5721 150.7218 862.5192 148.69099 C 860.4663 146.66017 857.674 145.64478 854.1421 145.64478 C 850.6103 145.64478 847.8179 146.66017 845.7651 148.69099 C 843.7122 150.7218 842.4429 153.81214 841.9573 157.96207 Z M 882.3527 174.12025 C 881.9554 176.90159 881.238 179.35178 880.2005 181.4709 C 879.163 183.59 877.9159 185.4442 876.459 187.03355 C 875.0021 188.62288 873.3686 189.93627 871.5585 190.97376 C 869.7485 192.01124 867.8722 192.86108 865.9297 193.5233 C 863.9871 194.18553 862.0336 194.64908 860.069 194.91397 C 858.1044 195.17886 856.2171 195.3113 854.407 195.3113 C 850.8752 195.3113 847.3875 194.79257 843.9439 193.75508 C 840.5004 192.7176 837.4211 191.00688 834.706 188.62287 C 831.9909 186.23887 829.8056 183.07128 828.15 179.12001 C 826.4944 175.16874 825.6667 170.2794 825.6667 164.45183 C 825.6667 158.53597 826.5165 153.60248 828.2162 149.6512 C 829.9159 145.69994 832.1233 142.54339 834.8384 140.18146 C 837.5535 137.81953 840.5997 136.15296 843.9771 135.1817 C 847.3544 134.21043 850.7427 133.72481 854.1421 133.72481 C 857.4533 133.72481 860.7974 134.1994 864.1748 135.14858 C 867.5521 136.09777 870.6093 137.73123 873.3465 140.04901 C 876.0837 142.3668 878.3132 145.51231 880.035 149.48565 C 881.7567 153.459 882.6176 158.44767 882.6176 164.45183 L 882.6176 166.83583 L 841.6924 166.83583 C 841.8248 172.3102 843.0058 176.37178 845.2353 179.02068 C 847.4648 181.66957 850.6544 182.994 854.8044 182.994 C 858.1155 182.994 860.7643 182.21038 862.751 180.64312 C 864.7377 179.07586 865.9738 176.90159 866.4594 174.12025 Z" fill="black"/>
      </g>
      <g id="Graphic_101">
        <path d="M 903.4113 174.78247 C 903.4555 176.19521 903.7866 177.48653 904.4047 178.65646 C 905.0227 179.82639 905.8505 180.83074 906.888 181.66956 C 907.9255 182.50838 909.1616 183.15955 910.5964 183.6231 C 912.0312 184.08667 913.6095 184.31844 915.3313 184.31844 C 918.0685 184.31844 920.2979 183.74452 922.0197 182.59667 C 923.7415 181.44881 924.6024 179.81535 924.6024 177.69624 C 924.6024 176.32764 924.205 175.235 923.4104 174.41825 C 922.6157 173.6015 921.4568 172.90618 919.9337 172.33225 C 918.4106 171.75833 916.5564 171.21752 914.3711 170.70981 C 912.1857 170.2021 909.7245 169.573 906.9873 168.82249 C 905.0007 168.24856 902.9699 167.56427 900.8949 166.7696 C 898.8199 165.97494 896.9437 164.92643 895.266 163.62406 C 893.5884 162.32168 892.2088 160.68822 891.1271 158.72363 C 890.0455 156.75903 889.5047 154.34195 889.5047 151.47231 C 889.5047 148.20534 890.2 145.43508 891.5907 143.16145 C 892.9814 140.88781 894.8135 139.05569 897.0871 137.66502 C 899.3608 136.27435 901.9544 135.27 904.8682 134.65192 C 907.782 134.03384 910.7399 133.72481 913.742 133.72481 C 917.0972 133.72481 920.2428 134.10006 923.1786 134.85058 C 926.1145 135.6011 928.6861 136.7379 930.8935 138.26102 C 933.1009 139.78413 934.8889 141.71559 936.2575 144.05545 C 937.6261 146.3953 938.4207 149.13245 938.6415 152.26698 L 922.4833 152.26698 C 922.3508 150.01542 921.4568 148.19433 919.8013 146.80366 C 918.1457 145.413 915.9935 144.71767 913.3446 144.71767 C 911.2255 144.71767 909.4375 145.19225 907.9807 146.14144 C 906.5238 147.09063 905.7953 148.47024 905.7953 150.28032 C 905.7953 151.64891 906.2368 152.73053 907.1198 153.5252 C 908.0027 154.31987 909.2389 154.98208 910.8282 155.51186 C 912.4175 156.04164 914.2938 156.5383 916.4571 157.00185 C 918.6203 157.46541 920.9822 158.05037 923.5428 158.75674 C 925.7061 159.37481 927.8362 160.10325 929.9333 160.94206 C 932.0303 161.78088 933.8845 162.88457 935.4959 164.25317 C 937.1073 165.62176 938.4097 167.29937 939.403 169.28604 C 940.3963 171.27271 940.893 173.67875 940.893 176.50424 C 940.893 180.0361 940.1425 182.994 938.6415 185.378 C 937.1404 187.762 935.1758 189.69346 932.7477 191.17242 C 930.3195 192.65139 927.5603 193.71093 924.4699 194.35108 C 921.3796 194.99123 918.2451 195.3113 915.0664 195.3113 C 911.2697 195.3113 907.7268 194.8919 904.4378 194.05308 C 901.1487 193.21426 898.2791 191.93398 895.8289 190.2122 C 893.3787 188.49042 891.4031 186.34926 889.902 183.78867 C 888.401 181.22807 887.518 178.22603 887.2532 174.78247 Z" fill="black"/>
      </g>
      <g id="Graphic_102">
        <path d="M 950.8843 135.04925 C 953.3566 135.04925 955.0783 134.54155 956.0496 133.52614 C 957.0208 132.51073 957.5065 130.81105 957.5065 128.42705 L 957.5065 117.69908 L 970.486 117.69908 L 970.486 135.04925 L 987.8361 135.04925 L 987.8361 147.2341 L 970.486 147.2341 L 970.486 173.32558 C 970.486 174.78248 970.6074 176.06276 970.8502 177.16646 C 971.093 178.27017 971.5345 179.19727 972.1746 179.94779 C 972.8148 180.6983 973.6867 181.2612 974.7904 181.63645 C 975.8941 182.0117 977.2848 182.19934 978.9624 182.19934 C 980.4193 182.19934 981.8872 182.0669 983.3662 181.802 C 984.8451 181.53712 986.0261 181.22808 986.909 180.8749 L 986.909 193.32464 C 986.4234 193.54538 985.7612 193.77715 984.9224 194.01997 C 984.0836 194.26278 983.1344 194.48352 982.0748 194.6822 C 981.0153 194.88086 979.8564 195.03537 978.5982 195.14574 C 977.34 195.25611 976.0486 195.3113 974.7242 195.3113 C 970.795 195.3113 967.506 194.81464 964.8571 193.8213 C 962.2082 192.82797 960.0891 191.43732 958.4998 189.64932 C 956.9104 187.86131 955.7736 185.7312 955.0894 183.2589 C 954.405 180.78659 954.0629 178.09359 954.0629 175.1798 L 954.0629 147.2341 L 945.5865 147.2341 L 945.5865 135.04925 Z" fill="black"/>
      </g>
    </g>
  </g>
</svg>
